<?xml version="1.0" encoding="iso-8859-1"?>
<!-- Generator: Adobe Illustrator 19.0.0, SVG Export Plug-In . SVG Version: 6.00 Build 0)  -->
<svg version="1.1" id="Capa_1" xmlns="http://www.w3.org/2000/svg" xmlns:xlink="http://www.w3.org/1999/xlink" x="0px" y="0px"
	 viewBox="0 0 201.387 201.387" style="enable-background:new 0 0 201.387 201.387;" xml:space="preserve">
<g>
	<g>
		<path d="M100.693,0C45.17,0,0,45.17,0,100.693s45.17,100.693,100.693,100.693s100.693-45.17,100.693-100.693S156.216,0,100.693,0z
			 M100.693,194.56c-51.758,0-93.867-42.109-93.867-93.867S48.935,6.827,100.693,6.827s93.867,42.109,93.867,93.867
			S152.451,194.56,100.693,194.56z"/>
	</g>
</g>
<g>
	<g>
		<g>
			<path d="M100.693,27.307c-40.465,0-73.387,32.922-73.387,73.387c0,40.465,32.922,73.387,73.387,73.387
				s73.387-32.922,73.387-73.387S141.158,27.307,100.693,27.307z M100.693,167.253c-36.702,0-66.56-29.858-66.56-66.56
				c0-36.702,29.858-66.56,66.56-66.56c36.702,0,66.56,29.858,66.56,66.56C167.253,137.395,137.395,167.253,100.693,167.253z"/>
			<path d="M100.693,40.96c-32.937,0-59.733,26.796-59.733,59.733s26.796,59.733,59.733,59.733s59.733-26.796,59.733-59.733
				S133.63,40.96,100.693,40.96z M100.693,153.6c-29.174,0-52.907-23.735-52.907-52.907s23.733-52.907,52.907-52.907
				S153.6,71.521,153.6,100.693S129.867,153.6,100.693,153.6z"/>
		</g>
	</g>
</g>
<g>
</g>
<g>
</g>
<g>
</g>
<g>
</g>
<g>
</g>
<g>
</g>
<g>
</g>
<g>
</g>
<g>
</g>
<g>
</g>
<g>
</g>
<g>
</g>
<g>
</g>
<g>
</g>
<g>
</g>
</svg>
