<?xml version="1.0" encoding="iso-8859-1"?>
<!-- Generator: Adobe Illustrator 19.0.0, SVG Export Plug-In . SVG Version: 6.00 Build 0)  -->
<svg version="1.1" id="Capa_1" xmlns="http://www.w3.org/2000/svg" xmlns:xlink="http://www.w3.org/1999/xlink" x="0px" y="0px"
	 viewBox="0 0 512 512" style="enable-background:new 0 0 512 512;" xml:space="preserve">
<path style="fill:#ACE2FF;" d="M115.448,512c-30.838,0-59.829-12.009-81.633-33.814C12.009,456.38,0,427.389,0,396.552
	s12.009-59.829,33.814-81.633L314.918,33.814C336.723,12.009,365.715,0,396.552,0s59.829,12.009,81.634,33.814
	C499.991,55.619,512,84.61,512,115.448s-12.009,59.829-33.814,81.633L197.081,478.186C175.277,499.991,146.285,512,115.448,512z"/>
<path style="fill:#9CDCFF;" d="M478.186,33.814L33.814,478.186l0,0C55.619,499.991,84.61,512,115.448,512
	s59.829-12.009,81.633-33.814l281.104-281.104c21.806-21.806,33.814-50.797,33.814-81.633S499.99,55.619,478.186,33.814
	L478.186,33.814z"/>
<path style="fill:#EA4356;" d="M512,115.448c0-30.838-12.009-59.829-33.814-81.633C456.38,12.009,427.389,0,396.552,0
	s-59.829,12.009-81.633,33.814L174.366,174.366l163.267,163.268l140.552-140.552C499.991,175.277,512,146.285,512,115.448z"/>
<path style="fill:#DD2334;" d="M479.651,35.315L257.483,257.482l80.151,80.151l140.552-140.552
	C499.991,175.276,512,146.284,512,115.448C512,85.311,500.525,56.941,479.651,35.315z"/>
<path style="fill:#FFFFFF;" d="M46.288,435.594c-21.527-21.528-21.527-56.556,0-78.084l108.609-108.609l21.296,21.296
	L67.584,378.806c-9.785,9.786-9.785,25.708,0,35.493L46.288,435.594z"/>
<path style="fill:#F96E6E;" d="M270.197,176.193l-21.296-21.296L357.51,46.288c21.526-21.527,56.556-21.527,78.084,0l-21.296,21.297
	c-9.787-9.787-25.708-9.785-35.493,0L270.197,176.193z"/>
<g>
</g>
<g>
</g>
<g>
</g>
<g>
</g>
<g>
</g>
<g>
</g>
<g>
</g>
<g>
</g>
<g>
</g>
<g>
</g>
<g>
</g>
<g>
</g>
<g>
</g>
<g>
</g>
<g>
</g>
</svg>
