<?xml version="1.0" encoding="UTF-8" standalone="no" ?>
<!DOCTYPE svg PUBLIC "-//W3C//DTD SVG 1.1//EN" "http://www.w3.org/Graphics/SVG/1.1/DTD/svg11.dtd">
<svg xmlns="http://www.w3.org/2000/svg" xmlns:xlink="http://www.w3.org/1999/xlink" version="1.1" width="350" height="350" viewBox="0 0 350 350" xml:space="preserve">
<desc>Created with Fabric.js 1.7.22</desc>
<defs>
</defs>
<g id="icon" style="stroke: none; stroke-width: 1; stroke-dasharray: none; stroke-linecap: butt; stroke-linejoin: miter; stroke-miterlimit: 10; opacity: 1;" transform="translate(-1.9444444444444287 -1.9444444444444287) scale(3.89 3.89)" >
	<path d="M 76.022 69.496 H 52.298 c -1.657 0 -3 -1.343 -3 -3 s 1.343 -3 3 -3 h 23.725 c 1.657 0 3 1.343 3 3 S 77.68 69.496 76.022 69.496 z" style="stroke: none; stroke-width: 1; stroke-dasharray: none; stroke-linecap: butt; stroke-linejoin: miter; stroke-miterlimit: 10; fill-rule: nonzero; opacity: 1;" transform=" matrix(1 0 0 1 0 0) " stroke-linecap="round" />
	<path d="M 53.915 26.504 H 13.977 c -1.657 0 -3 -1.343 -3 -3 s 1.343 -3 3 -3 h 39.938 c 1.657 0 3 1.343 3 3 S 55.572 26.504 53.915 26.504 z" style="stroke: none; stroke-width: 1; stroke-dasharray: none; stroke-linecap: butt; stroke-linejoin: miter; stroke-miterlimit: 10; fill-rule: nonzero; opacity: 1;" transform=" matrix(1 0 0 1 0 0) " stroke-linecap="round" />
	<path d="M 76.022 48 H 32.679 c -1.657 0 -3 -1.343 -3 -3 c 0 -1.657 1.343 -3 3 -3 h 43.344 c 1.657 0 3 1.343 3 3 C 79.022 46.657 77.68 48 76.022 48 z" style="stroke: none; stroke-width: 1; stroke-dasharray: none; stroke-linecap: butt; stroke-linejoin: miter; stroke-miterlimit: 10; fill-rule: nonzero; opacity: 1;" transform=" matrix(1 0 0 1 0 0) " stroke-linecap="round" />
	<path d="M 26.972 53.706 c -4.801 0 -8.707 -3.905 -8.707 -8.706 s 3.906 -8.707 8.707 -8.707 s 8.707 3.906 8.707 8.707 S 31.773 53.706 26.972 53.706 z M 26.972 42.293 c -1.492 0 -2.707 1.214 -2.707 2.707 s 1.214 2.706 2.707 2.706 s 2.707 -1.214 2.707 -2.706 S 28.464 42.293 26.972 42.293 z" style="stroke: none; stroke-width: 1; stroke-dasharray: none; stroke-linecap: butt; stroke-linejoin: miter; stroke-miterlimit: 10; fill-rule: nonzero; opacity: 1;" transform=" matrix(1 0 0 1 0 0) " stroke-linecap="round" />
	<path d="M 46.591 75.202 c -4.801 0 -8.707 -3.905 -8.707 -8.706 s 3.906 -8.707 8.707 -8.707 s 8.707 3.906 8.707 8.707 S 51.392 75.202 46.591 75.202 z M 46.591 63.789 c -1.492 0 -2.707 1.215 -2.707 2.707 s 1.214 2.706 2.707 2.706 s 2.707 -1.214 2.707 -2.706 S 48.083 63.789 46.591 63.789 z" style="stroke: none; stroke-width: 1; stroke-dasharray: none; stroke-linecap: butt; stroke-linejoin: miter; stroke-miterlimit: 10; fill-rule: nonzero; opacity: 1;" transform=" matrix(1 0 0 1 0 0) " stroke-linecap="round" />
	<path d="M 59.621 32.21 c -4.801 0 -8.706 -3.906 -8.706 -8.707 s 3.905 -8.707 8.706 -8.707 s 8.707 3.906 8.707 8.707 S 64.422 32.21 59.621 32.21 z M 59.621 20.797 c -1.492 0 -2.706 1.214 -2.706 2.707 s 1.214 2.707 2.706 2.707 s 2.707 -1.214 2.707 -2.707 S 61.113 20.797 59.621 20.797 z" style="stroke: none; stroke-width: 1; stroke-dasharray: none; stroke-linecap: butt; stroke-linejoin: miter; stroke-miterlimit: 10; fill-rule: nonzero; opacity: 1;" transform=" matrix(1 0 0 1 0 0) " stroke-linecap="round" />
	<path d="M 40.884 69.496 H 13.977 c -1.657 0 -3 -1.343 -3 -3 s 1.343 -3 3 -3 h 26.907 c 1.657 0 3 1.343 3 3 S 42.541 69.496 40.884 69.496 z" style="stroke: none; stroke-width: 1; stroke-dasharray: none; stroke-linecap: butt; stroke-linejoin: miter; stroke-miterlimit: 10; fill-rule: nonzero; opacity: 1;" transform=" matrix(1 0 0 1 0 0) " stroke-linecap="round" />
	<path d="M 21.266 48 h -7.289 c -1.657 0 -3 -1.343 -3 -3 c 0 -1.657 1.343 -3 3 -3 h 7.289 c 1.657 0 3 1.343 3 3 C 24.266 46.657 22.922 48 21.266 48 z" style="stroke: none; stroke-width: 1; stroke-dasharray: none; stroke-linecap: butt; stroke-linejoin: miter; stroke-miterlimit: 10; fill-rule: nonzero; opacity: 1;" transform=" matrix(1 0 0 1 0 0) " stroke-linecap="round" />
	<path d="M 76.022 26.504 H 65.328 c -1.657 0 -3 -1.343 -3 -3 s 1.343 -3 3 -3 h 10.694 c 1.657 0 3 1.343 3 3 S 77.68 26.504 76.022 26.504 z" style="stroke: none; stroke-width: 1; stroke-dasharray: none; stroke-linecap: butt; stroke-linejoin: miter; stroke-miterlimit: 10; fill-rule: nonzero; opacity: 1;" transform=" matrix(1 0 0 1 0 0) " stroke-linecap="round" />
	<path d="M 75.116 90 H 14.884 C 6.677 90 0 83.323 0 75.116 V 14.884 C 0 6.677 6.677 0 14.884 0 h 60.232 C 83.323 0 90 6.677 90 14.884 v 60.232 C 90 83.323 83.323 90 75.116 90 z M 14.884 6 C 9.985 6 6 9.985 6 14.884 v 60.232 C 6 80.015 9.985 84 14.884 84 h 60.232 C 80.015 84 84 80.015 84 75.116 V 14.884 C 84 9.985 80.015 6 75.116 6 H 14.884 z" style="stroke: none; stroke-width: 1; stroke-dasharray: none; stroke-linecap: butt; stroke-linejoin: miter; stroke-miterlimit: 10; fill-rule: nonzero; opacity: 1;" transform=" matrix(1 0 0 1 0 0) " stroke-linecap="round" />
</g>
</svg>