<svg id="Capa_1" enable-background="new 0 0 512 512" height="512" viewBox="0 0 512 512" width="512" xmlns="http://www.w3.org/2000/svg"><g><g><path d="m512 388.378v-264.756l-256-61.811-256 61.811v326.567c0 34.137 27.674 61.811 61.811 61.811h326.567z" fill="#f5fafc"/></g><g><path d="m61.811 452.269v-343.571l-61.811 14.924v326.567c0 34.137 27.674 61.811 61.811 61.811h45.893c-26.421-7.023-45.893-31.099-45.893-59.731z" fill="#e1f1fa"/></g><g><path d="m388.378 512c68.275 0 123.622-55.347 123.622-123.622h-61.811c-34.137 0-61.811 27.674-61.811 61.811z" fill="#e1f1fa"/></g><g><path d="m512 123.622h-512v-61.811c0-34.137 27.674-61.811 61.811-61.811h388.378c34.137 0 61.811 27.674 61.811 61.811z" fill="#bfe1ff"/></g><g><g><g><path d="m280.409 59.465c0-15.085-10.928-16.502-24.409-16.502s-24.409 1.417-24.409 16.502 10.928 27.313 24.409 27.313 24.409-12.228 24.409-27.313z" fill="#495560"/></g></g><g><path d="m179.013 56.706c-4.143 0-7.5-3.358-7.5-7.5v-12.362c0-4.142 3.357-7.5 7.5-7.5s7.5 3.358 7.5 7.5v12.362c0 4.142-3.358 7.5-7.5 7.5z" fill="#495560"/></g><g><path d="m332.987 56.706c-4.143 0-7.5-3.358-7.5-7.5v-12.362c0-4.142 3.357-7.5 7.5-7.5s7.5 3.358 7.5 7.5v12.362c0 4.142-3.357 7.5-7.5 7.5z" fill="#495560"/></g></g><g><path d="m123.622 0h-61.811c-34.137 0-61.811 27.674-61.811 61.811v61.811h61.811v-61.811c0-34.137 27.674-61.811 61.811-61.811z" fill="#a3d4ff"/></g><g><path d="m334.668 272.858h-33.715v-33.715c0-24.827-20.126-44.953-44.953-44.953-24.827 0-44.953 20.126-44.953 44.953v33.715h-33.715c-24.827 0-44.953 20.126-44.953 44.953 0 24.827 20.126 44.953 44.953 44.953h33.715v33.715c0 24.827 20.126 44.953 44.953 44.953 24.827 0 44.953-20.126 44.953-44.953v-33.715h33.715c24.827 0 44.953-20.126 44.953-44.953.001-24.827-20.126-44.953-44.953-44.953z" fill="#ff9b87"/></g><g><path d="m267.238 362.764c-24.827 0-44.953-20.126-44.953-44.953 0-24.827 20.126-44.953 44.953-44.953h33.715v-33.715c0-24.827-20.126-44.953-44.953-44.953-24.827 0-44.953 20.126-44.953 44.953v33.715h-33.715c-24.827 0-44.953 20.126-44.953 44.953 0 24.827 20.126 44.953 44.953 44.953h33.715v33.715c0 24.827 20.126 44.953 44.953 44.953 24.827 0 44.953-20.126 44.953-44.953v-33.715z" fill="#ff8870"/></g><g><path d="m92.716 175.131c-17.069 0-30.905-13.837-30.905-30.905v-41.207c0-17.069 13.837-30.905 30.905-30.905 17.069 0 30.905 13.837 30.905 30.905v41.207c.001 17.068-13.836 30.905-30.905 30.905z" fill="#fff8ab"/></g><g><path d="m92.716 144.225v-41.207c0-11.437 6.218-21.416 15.453-26.761-4.547-2.631-9.821-4.145-15.453-4.145-17.069 0-30.905 13.837-30.905 30.905v41.207c0 17.069 13.837 30.905 30.905 30.905 5.631 0 10.906-1.514 15.453-4.145-9.235-5.342-15.453-15.321-15.453-26.759z" fill="#fff48f"/></g><g><path d="m419.284 175.131c-17.069 0-30.905-13.837-30.905-30.905v-41.207c0-17.069 13.837-30.905 30.905-30.905 17.069 0 30.905 13.837 30.905 30.905v41.207c0 17.068-13.837 30.905-30.905 30.905z" fill="#fff8ab"/></g><g><path d="m419.284 144.225v-41.207c0-11.437 6.218-21.416 15.453-26.761-4.547-2.631-9.821-4.145-15.453-4.145-17.069 0-30.905 13.837-30.905 30.905v41.207c0 17.069 13.837 30.905 30.905 30.905 5.631 0 10.906-1.514 15.453-4.145-9.236-5.342-15.453-15.321-15.453-26.759z" fill="#fff48f"/></g></g></svg>