<svg id="Capa_1" enable-background="new 0 0 512 512" height="512" viewBox="0 0 512 512" width="512" xmlns="http://www.w3.org/2000/svg"><path d="m437.02 74.98c-48.353-48.351-112.64-74.98-181.02-74.98s-132.667 26.629-181.02 74.98c-48.351 48.353-74.98 112.64-74.98 181.02s26.629 132.667 74.98 181.02c48.353 48.351 112.64 74.98 181.02 74.98s132.667-26.629 181.02-74.98c48.351-48.353 74.98-112.64 74.98-181.02s-26.629-132.667-74.98-181.02zm-181.02 407.02c-124.617 0-226-101.383-226-226s101.383-226 226-226 226 101.383 226 226-101.383 226-226 226z"/><path d="m256 65.607c-104.983 0-190.393 85.41-190.393 190.393s85.41 190.393 190.393 190.393 190.393-85.41 190.393-190.393-85.41-190.393-190.393-190.393zm0 350.786c-88.441 0-160.393-71.952-160.393-160.393s71.952-160.393 160.393-160.393 160.393 71.952 160.393 160.393-71.952 160.393-160.393 160.393z"/><path d="m352.363 208.879h-49.242v-49.242c0-8.284-6.716-15-15-15h-64.242c-8.284 0-15 6.716-15 15v49.242h-49.242c-8.284 0-15 6.716-15 15v64.242c0 8.284 6.716 15 15 15h49.242v49.242c0 8.284 6.716 15 15 15h64.242c8.284 0 15-6.716 15-15v-49.242h49.242c8.284 0 15-6.716 15-15v-64.242c0-8.284-6.716-15-15-15zm-15 64.242h-49.242c-8.284 0-15 6.716-15 15v49.242h-34.242v-49.242c0-8.284-6.716-15-15-15h-49.242v-34.242h49.242c8.284 0 15-6.716 15-15v-49.242h34.242v49.242c0 8.284 6.716 15 15 15h49.242z"/></svg>