<?xml version="1.0" ?><!DOCTYPE svg  PUBLIC '-//W3C//DTD SVG 1.1//EN'  'http://www.w3.org/Graphics/SVG/1.1/DTD/svg11.dtd'><svg height="100%" style="fill-rule:evenodd;clip-rule:evenodd;stroke-linejoin:round;stroke-miterlimit:2;" version="1.1" viewBox="0 0 24 24" width="100%" xml:space="preserve" xmlns="http://www.w3.org/2000/svg" xmlns:serif="http://www.serif.com/" xmlns:xlink="http://www.w3.org/1999/xlink"><g id="Icon"><path d="M12,2.25c-5.381,-0 -9.75,4.369 -9.75,9.75c-0,5.381 4.369,9.75 9.75,9.75c5.381,-0 9.75,-4.369 9.75,-9.75c-0,-5.381 -4.369,-9.75 -9.75,-9.75Zm6.339,4.472l-11.617,11.617c1.431,1.193 3.271,1.911 5.278,1.911c4.553,-0 8.25,-3.697 8.25,-8.25c-0,-2.007 -0.718,-3.847 -1.911,-5.278Zm-1.061,-1.061c-1.431,-1.193 -3.271,-1.911 -5.278,-1.911c-4.553,-0 -8.25,3.697 -8.25,8.25c-0,2.007 0.718,3.847 1.911,5.278l11.617,-11.617Z"/></g></svg>