<?xml version="1.0" encoding="utf-8"?>
<svg viewBox="0 0 500 500" xmlns="http://www.w3.org/2000/svg">
  <g transform="matrix(0.667082, 0, 0, 0.792988, 52.017559, 27.847603)" style="">
    <path d="M 514.289 261.13 L 499.281 274.4 L 499.281 158.99 C 499.238 156.064 498.055 153.267 495.977 151.205 L 367.177 22.855 C 365.079 20.683 362.192 19.452 359.169 19.441 L 166.359 19.441 C 151.507 19.441 137.265 25.339 126.761 35.843 C 116.261 46.343 110.359 60.585 110.359 75.441 L 110.359 484.851 C 110.359 499.703 116.261 513.949 126.761 524.449 C 137.265 534.953 151.507 540.851 166.359 540.851 L 443.279 540.851 C 458.131 540.851 472.377 534.952 482.877 524.449 C 493.381 513.949 499.279 499.703 499.279 484.851 L 499.279 402.363 L 577.677 333.652 C 590.634 322.328 596.564 304.953 593.232 288.074 C 589.904 271.191 577.822 257.371 561.537 251.812 C 545.252 246.253 527.24 249.808 514.287 261.132 Z M 370.369 57.34 L 461.256 148.059 L 381.568 148.059 C 375.381 148.059 370.369 143.047 370.369 136.86 Z M 476.769 484.84 C 476.769 493.75 473.23 502.297 466.93 508.598 C 460.625 514.899 452.082 518.442 443.168 518.442 L 166.358 518.442 C 157.447 518.442 148.901 514.899 142.6 508.598 C 136.299 502.297 132.76 493.75 132.76 484.84 L 132.76 75.14 C 132.76 66.23 136.299 57.683 142.6 51.382 C 148.9 45.081 157.448 41.538 166.358 41.538 L 347.968 41.538 L 347.968 136.741 C 347.968 145.651 351.507 154.198 357.807 160.499 C 364.112 166.8 372.655 170.339 381.569 170.339 L 476.768 170.339 L 476.768 293.929 L 386.159 373.335 C 384.339 374.929 383.081 377.069 382.577 379.441 L 370.089 438.519 C 369.386 441.862 370.25 445.343 372.433 447.972 C 374.613 450.601 377.875 452.089 381.289 452.015 L 381.906 452.015 L 443.113 448.542 C 445.597 448.401 447.961 447.436 449.832 445.8 L 477.047 421.945 Z M 562.898 316.84 L 437.788 426.43 L 395.061 428.895 L 403.741 387.735 L 529.071 277.975 C 536.02 272.115 545.54 270.354 554.122 273.334 C 562.708 276.319 569.087 283.6 570.911 292.502 C 572.731 301.408 569.728 310.611 563.005 316.725 Z"/>
    <path d="m184.91 224h112c6.1875 0 11.203-5.0156 11.203-11.199 0-6.1875-5.0156-11.199-11.203-11.199h-112c-6.1836 0-11.199 5.0117-11.199 11.199 0 6.1836 5.0156 11.199 11.199 11.199z"/>
    <path d="m184.91 302.4h224c6.1875 0 11.203-5.0117 11.203-11.199 0-6.1836-5.0156-11.199-11.203-11.199h-224c-6.1836 0-11.199 5.0156-11.199 11.199 0 6.1875 5.0156 11.199 11.199 11.199z"/>
    <path d="m341.71 358.4h-156.8c-6.1836 0-11.199 5.0156-11.199 11.203 0 6.1836 5.0156 11.199 11.199 11.199h156.8c6.1875 0 11.199-5.0156 11.199-11.199 0-6.1875-5.0117-11.203-11.199-11.203z"/>
    <path d="m341.71 436.8h-156.8c-6.1836 0-11.199 5.0117-11.199 11.199s5.0156 11.199 11.199 11.199h156.8c6.1875 0 11.199-5.0117 11.199-11.199s-5.0117-11.199-11.199-11.199z"/>
  </g>
</svg>