<?xml version="1.0" encoding="utf-8"?>
<svg viewBox="0 0 500 500" xmlns="http://www.w3.org/2000/svg" fill="#ff0" >
  <g id="_2684149720976" transform="matrix(0.161173, 0, 0, 0.1524, 4.927757, 5.772408)" fill="#f00">
    <path d="M 1565.065 2760.869 C 1587.082 2759.753 1607.507 2758.196 1629.223 2755.991 C 1672.617 2751.584 1712.526 2745.464 1754.562 2736.862 C 1838.531 2719.68 1914.118 2696.031 1991.392 2663.347 C 2068.582 2630.698 2137.064 2593.404 2205.804 2546.965 C 2274.511 2500.547 2334.274 2451.19 2392.732 2392.732 C 2451.19 2334.274 2500.547 2274.511 2546.965 2205.804 C 2593.404 2137.064 2630.698 2068.582 2663.347 1991.392 C 2696.031 1914.118 2719.68 1838.531 2736.862 1754.562 C 2754.079 1670.428 2762.514 1589.158 2762.514 1500 C 2762.514 1410.842 2754.079 1329.572 2736.862 1245.438 C 2719.68 1161.469 2696.031 1085.882 2663.347 1008.608 C 2630.698 931.418 2593.404 862.936 2546.965 794.196 C 2500.547 725.489 2451.19 665.726 2392.732 607.268 C 2334.274 548.81 2274.511 499.453 2205.804 453.035 C 2137.064 406.596 2068.582 369.302 1991.392 336.653 C 1914.118 303.969 1838.531 280.32 1754.562 263.138 C 1670.428 245.921 1589.158 237.486 1500 237.486 C 1410.842 237.486 1329.572 245.921 1245.438 263.138 C 1161.469 280.32 1085.882 303.969 1008.608 336.653 C 931.418 369.302 862.936 406.596 794.196 453.035 C 725.489 499.453 665.726 548.81 607.268 607.268 C 548.81 665.726 499.453 725.489 453.035 794.196 C 406.596 862.936 369.302 931.418 336.653 1008.608 C 303.969 1085.882 280.32 1161.469 263.138 1245.438 C 245.921 1329.572 237.179 1410.842 237.486 1500 L 237.427 1500 C 237.643 1513.605 238.25 1547.681 239.131 1565.065 C 240.247 1587.082 241.804 1607.507 244.009 1629.223 C 248.416 1672.617 254.536 1712.526 263.138 1754.562 C 280.32 1838.531 303.969 1914.118 336.653 1991.392 C 358.571 2043.211 376.365 2077.67 403.831 2124.353 C 391.975 2128.53 380.405 2133.079 369.193 2137.974 C 311.079 2163.345 261.099 2214.666 214.971 2258.61 C 181.252 2201.448 150.635 2141.022 125.18 2080.838 C 88.168 1993.332 57.699 1895.946 38.187 1800.594 C 28.442 1752.97 20.57 1701.632 15.572 1652.423 C 10.581 1603.268 8.461 1511.6 8.461 1511.6 C 8.329 1509.868 7.874 1500 7.874 1500 C 8.181 1398.99 18.709 1294.593 38.187 1199.406 C 57.699 1104.054 88.168 1006.668 125.18 919.162 C 162.227 831.571 210.207 743.467 262.774 665.658 C 315.362 587.817 378.742 511.073 444.908 444.908 C 511.073 378.742 587.817 315.362 665.658 262.774 C 743.467 210.207 831.571 162.227 919.162 125.18 C 1006.668 88.168 1104.054 57.699 1199.406 38.187 C 1294.593 18.709 1398.99 7.874 1500 7.874 C 1601.01 7.874 1705.407 18.709 1800.594 38.187 C 1895.946 57.699 1993.332 88.168 2080.838 125.18 C 2168.429 162.227 2256.533 210.207 2334.342 262.774 C 2412.183 315.362 2488.927 378.742 2555.092 444.908 C 2621.258 511.073 2684.638 587.817 2737.226 665.658 C 2789.793 743.467 2837.773 831.571 2874.82 919.162 C 2911.832 1006.668 2942.301 1104.054 2961.813 1199.406 C 2981.291 1294.593 2992.126 1398.99 2992.126 1500 C 2992.126 1601.01 2981.291 1705.407 2961.813 1800.594 C 2942.301 1895.946 2911.832 1993.332 2874.82 2080.838 C 2837.773 2168.429 2789.793 2256.533 2737.226 2334.342 C 2684.638 2412.183 2621.258 2488.927 2555.092 2555.092 C 2488.927 2621.258 2412.183 2684.638 2334.342 2737.226 C 2256.533 2789.793 2168.429 2837.773 2080.838 2874.82 C 1993.332 2911.832 1895.946 2942.301 1800.594 2961.813 C 1752.97 2971.558 1701.632 2979.43 1652.423 2984.428 C 1603.268 2989.419 1511.6 2991.539 1511.6 2991.539 C 1509.868 2991.671 1500 2992.126 1500 2992.126 C 1398.99 2991.819 1294.593 2981.291 1199.406 2961.813 C 1160.352 2953.821 1126.665 2950.029 1087.747 2938.665 C 1093.991 2926.21 1099.747 2913.586 1104.958 2900.87 C 1127.755 2845.24 1140.341 2798.499 1149.766 2714.497 C 1183.499 2724.452 1209.415 2729.491 1245.438 2736.862 C 1329.572 2754.079 1410.842 2762.821 1500 2762.514 L 1500 2762.573 C 1513.605 2762.357 1547.681 2761.75 1565.065 2760.869 Z"/>
    <path d="M 1085.65 2656.025 C 1085.65 2926.722 873.044 3146.165 610.781 3146.165 C 348.517 3146.165 135.911 2926.722 135.911 2656.025 C 135.911 2385.328 348.517 2165.885 610.781 2165.885 C 873.044 2165.885 1085.65 2385.328 1085.65 2656.025 Z"/>
  </g>
  <path d="M 335.605 244.378 C 335.605 236.483 331.419 229.522 325.048 225.094 L 325.048 200.705 C 325.048 199.414 324.493 198.182 323.501 197.272 L 274.445 152.178 L 297.106 131.344 C 299.17 129.446 299.17 126.382 297.106 124.483 L 295.56 123.063 L 309.21 110.514 L 316.036 116.787 L 323.501 109.924 L 281.269 71.1 L 273.805 77.965 L 280.631 84.239 L 266.981 96.788 L 265.434 95.367 C 263.369 93.469 260.033 93.469 257.97 95.367 L 189.344 158.452 C 188.353 159.36 187.798 160.592 187.798 161.881 L 187.798 200.705 L 182.519 200.705 C 179.606 200.705 177.239 202.874 177.239 205.558 L 177.239 254.086 C 177.239 256.766 179.606 258.934 182.519 258.934 L 208.915 258.934 L 208.915 273.496 C 208.915 276.177 211.278 278.348 214.192 278.348 L 235.306 278.348 C 238.222 278.348 240.587 276.177 240.587 273.496 L 240.587 258.934 L 266.981 258.934 C 269.894 258.934 272.26 256.766 272.26 254.086 L 272.26 205.558 C 272.26 202.874 269.894 200.705 266.981 200.705 L 261.701 200.705 L 261.701 183.301 L 288.095 207.568 L 288.095 229.97 C 284.823 234.012 282.817 238.967 282.817 244.378 C 282.817 249.791 284.823 254.745 288.095 258.788 L 288.095 288.05 L 171.962 288.05 L 171.962 297.757 L 288.095 297.757 L 288.095 331.728 L 261.701 331.728 L 261.701 317.169 C 261.701 314.484 259.337 312.317 256.422 312.317 L 193.077 312.317 C 190.162 312.317 187.798 314.484 187.798 317.169 L 187.798 331.728 L 150.846 331.728 C 142.115 331.728 135.011 338.259 135.011 346.286 L 135.011 360.841 C 135.011 363.527 137.375 365.695 140.289 365.695 L 298.653 365.695 C 313.207 365.695 325.048 354.81 325.048 341.434 L 325.048 263.663 C 331.419 259.232 335.605 252.274 335.605 244.378 Z M 288.095 91.099 L 301.747 103.648 L 288.095 116.198 L 274.445 103.648 L 288.095 91.099 Z M 230.029 268.641 L 219.471 268.641 L 219.471 258.934 L 230.029 258.934 L 230.029 268.641 Z M 261.701 249.232 L 187.798 249.232 L 187.798 210.409 L 261.701 210.409 L 261.701 249.232 Z M 198.357 200.705 L 198.357 163.891 L 261.701 105.66 L 285.911 127.913 L 252.69 158.452 C 251.698 159.36 251.144 160.592 251.144 161.881 L 251.144 200.705 L 198.357 200.705 Z M 261.701 169.58 L 261.701 163.891 L 266.981 159.038 L 314.49 202.714 L 314.49 220.605 C 312.784 220.285 311.015 220.116 309.21 220.116 C 305.453 220.116 301.894 220.862 298.653 222.174 L 298.653 205.558 C 298.653 204.265 298.098 203.034 297.106 202.124 L 261.701 169.58 Z M 198.357 322.02 L 251.144 322.02 L 251.144 331.728 L 198.357 331.728 L 198.357 322.02 Z M 314.49 341.434 C 314.49 349.461 307.384 355.99 298.653 355.99 L 145.566 355.99 L 145.566 346.286 C 145.566 343.609 147.938 341.434 150.846 341.434 L 293.373 341.434 C 296.289 341.434 298.653 339.263 298.653 336.579 L 298.653 266.585 C 301.894 267.896 305.453 268.641 309.21 268.641 C 311.015 268.641 312.784 268.473 314.49 268.153 L 314.49 341.434 Z M 309.21 258.934 C 300.481 258.934 293.373 252.406 293.373 244.378 C 293.373 236.352 300.481 229.819 309.21 229.819 C 317.941 229.819 325.048 236.352 325.048 244.378 C 325.048 252.406 317.941 258.934 309.21 258.934 Z"/>
</svg>
