<?xml version="1.0" encoding="utf-8"?>
<svg viewBox="0 0 500 500" xmlns="http://www.w3.org/2000/svg">
  <path d="M 405.347 281.951 C 405.347 270.361 398.462 260.14 387.983 253.641 L 387.983 217.833 C 387.983 215.939 387.07 214.131 385.439 212.793 L 304.756 146.592 L 342.028 116.004 C 345.422 113.218 345.422 108.721 342.028 105.932 L 339.485 103.847 L 361.935 85.425 L 373.162 94.634 L 385.439 84.56 L 315.98 27.56 L 303.704 37.639 L 314.931 46.849 L 292.481 65.273 L 289.935 63.187 C 286.541 60.4 281.053 60.4 277.66 63.187 L 164.791 155.801 C 163.16 157.136 162.247 158.944 162.247 160.837 L 162.247 217.833 L 153.564 217.833 C 148.774 217.833 144.881 221.019 144.881 224.96 L 144.881 296.203 C 144.881 300.138 148.774 303.321 153.564 303.321 L 196.978 303.321 L 196.978 324.699 C 196.978 328.635 200.865 331.821 205.658 331.821 L 240.383 331.821 C 245.181 331.821 249.069 328.635 249.069 324.699 L 249.069 303.321 L 292.481 303.321 C 297.271 303.321 301.163 300.138 301.163 296.203 L 301.163 224.96 C 301.163 221.019 297.271 217.833 292.481 217.833 L 283.797 217.833 L 283.797 192.283 L 327.207 227.91 L 327.207 260.799 C 321.825 266.733 318.526 274.005 318.526 281.951 C 318.526 289.898 321.825 297.17 327.207 303.107 L 327.207 346.066 L 136.202 346.066 L 136.202 360.316 L 327.207 360.316 L 327.207 410.19 L 283.797 410.19 L 283.797 388.815 C 283.797 384.873 279.908 381.691 275.113 381.691 L 170.929 381.691 C 166.135 381.691 162.247 384.873 162.247 388.815 L 162.247 410.19 L 101.473 410.19 C 87.111 410.19 75.429 419.778 75.429 431.562 L 75.429 452.928 C 75.429 456.873 79.317 460.057 84.109 460.057 L 344.573 460.057 C 368.508 460.057 387.983 444.076 387.983 424.438 L 387.983 310.262 C 398.462 303.758 405.347 293.541 405.347 281.951 Z M 327.207 56.922 L 349.659 75.342 L 327.207 93.769 L 304.756 75.342 L 327.207 56.922 Z M 231.705 317.57 L 214.34 317.57 L 214.34 303.321 L 231.705 303.321 L 231.705 317.57 Z M 283.797 289.077 L 162.247 289.077 L 162.247 232.08 L 283.797 232.08 L 283.797 289.077 Z M 179.614 217.833 L 179.614 163.786 L 283.797 78.298 L 323.615 110.969 L 268.976 155.801 C 267.345 157.136 266.433 158.944 266.433 160.837 L 266.433 217.833 L 179.614 217.833 Z M 283.797 172.14 L 283.797 163.786 L 292.481 156.662 L 370.618 220.784 L 370.618 247.05 C 367.813 246.58 364.902 246.332 361.935 246.332 C 355.755 246.332 349.902 247.426 344.573 249.353 L 344.573 224.96 C 344.573 223.059 343.658 221.253 342.028 219.918 L 283.797 172.14 Z M 179.614 395.937 L 266.433 395.937 L 266.433 410.19 L 179.614 410.19 L 179.614 395.937 Z M 370.618 424.438 C 370.618 436.222 358.931 445.808 344.573 445.808 L 92.789 445.808 L 92.789 431.562 C 92.789 427.63 96.689 424.438 101.473 424.438 L 335.887 424.438 C 340.685 424.438 344.573 421.252 344.573 417.311 L 344.573 314.553 C 349.902 316.478 355.755 317.57 361.935 317.57 C 364.902 317.57 367.813 317.323 370.618 316.855 L 370.618 424.438 Z M 361.935 303.321 C 347.578 303.321 335.887 293.737 335.887 281.951 C 335.887 270.169 347.578 260.576 361.935 260.576 C 376.294 260.576 387.983 270.169 387.983 281.951 C 387.983 293.737 376.294 303.321 361.935 303.321 Z" style=""/>
</svg>