<svg height="512" viewBox="0 0 64 64" width="512" xmlns="http://www.w3.org/2000/svg"><g id="Outline"><path d="m32 2a22.16 22.16 0 0 0 -22 22.267c0 7.841 3.6 16.542 10.7 25.86a86.5 86.5 0 0 0 10.642 11.626 1 1 0 0 0 1.316 0 86.5 86.5 0 0 0 10.642-11.626c7.1-9.318 10.7-18.019 10.7-25.86a22.16 22.16 0 0 0 -22-22.267zm0 57.646c-3.527-3.288-20-19.5-20-35.379a20 20 0 1 1 40 0c0 15.88-16.473 32.091-20 35.379z"/><path d="m32 6a18 18 0 1 0 18 18 18.021 18.021 0 0 0 -18-18zm0 34a16 16 0 1 1 16-16 16.019 16.019 0 0 1 -16 16z"/><path d="m43 20h-7v-7a1 1 0 0 0 -1-1h-6a1 1 0 0 0 -1 1v7h-7a1 1 0 0 0 -1 1v6a1 1 0 0 0 1 1h7v7a1 1 0 0 0 1 1h6a1 1 0 0 0 1-1v-7h7a1 1 0 0 0 1-1v-6a1 1 0 0 0 -1-1zm-1 6h-7a1 1 0 0 0 -1 1v7h-4v-7a1 1 0 0 0 -1-1h-7v-4h7a1 1 0 0 0 1-1v-7h4v7a1 1 0 0 0 1 1h7z"/></g></svg>