<?xml version="1.0" encoding="iso-8859-1"?>
<!-- Generator: Adobe Illustrator 16.0.0, SVG Export Plug-In . SVG Version: 6.00 Build 0)  -->
<!DOCTYPE svg PUBLIC "-//W3C//DTD SVG 1.1//EN" "http://www.w3.org/Graphics/SVG/1.1/DTD/svg11.dtd">
<svg version="1.1" id="Capa_1" xmlns="http://www.w3.org/2000/svg" xmlns:xlink="http://www.w3.org/1999/xlink" x="0px" y="0px"
	 width="51.67px" height="51.67px" viewBox="0 0 51.67 51.67" style="enable-background:new 0 0 51.67 51.67;" xml:space="preserve"
	>
<g>
	<g>
		<path d="M37.411,34.392c-0.596-0.934-1.621-1.413-2.653-1.372l-3.603-5.647c3.392-2.846,5.555-7.109,5.555-11.872
			c0-8.547-6.953-15.5-15.5-15.5c-8.547,0-15.5,6.953-15.5,15.5S12.663,31,21.21,31c2.708,0,5.254-0.702,7.472-1.928l3.547,5.562
			c-0.473,0.918-0.471,2.052,0.125,2.985l8.077,12.664c0.572,0.896,1.542,1.387,2.532,1.387c0.552,0,1.11-0.15,1.61-0.471
			c1.396-0.892,1.807-2.745,0.916-4.144L37.411,34.392z M11.71,15.499c0-5.238,4.262-9.5,9.5-9.5c5.238,0,9.5,4.262,9.5,9.5
			c0,5.238-4.262,9.5-9.5,9.5C15.972,24.999,11.71,20.737,11.71,15.499z"/>
	</g>
</g>
<g>
</g>
<g>
</g>
<g>
</g>
<g>
</g>
<g>
</g>
<g>
</g>
<g>
</g>
<g>
</g>
<g>
</g>
<g>
</g>
<g>
</g>
<g>
</g>
<g>
</g>
<g>
</g>
<g>
</g>
</svg>
