<?xml version="1.0" encoding="utf-8"?>
<svg viewBox="0 0 94 343" xmlns="http://www.w3.org/2000/svg">
  <path d="M 2.199 48.02 C 2.199 23.379 22.359 3.219 47 3.219 C 71.641 3.219 91.801 23.379 91.801 48.02 C 91.801 72.661 71.641 92.821 47 92.821 C 22.359 92.821 2.199 72.661 2.199 48.02 Z M 47 126.418 C 22.359 126.418 2.199 146.578 2.199 171.219 C 2.199 195.86 22.359 216.02 47 216.02 C 71.641 216.02 91.801 195.86 91.801 171.219 C 91.801 146.578 71.641 126.418 47 126.418 Z M 47 250.178 C 22.359 250.178 2.199 270.338 2.199 294.979 C 2.199 319.62 22.359 339.78 47 339.78 C 71.641 339.78 91.801 319.62 91.801 294.979 C 91.801 270.338 71.641 250.178 47 250.178 Z"/>
</svg>